<?xml version="1.0" encoding="UTF-8" standalone="no"?>
<!-- Created with Inkscape (http://www.inkscape.org/) -->

<svg
   xmlns:dc="http://purl.org/dc/elements/1.1/"
   xmlns:cc="http://creativecommons.org/ns#"
   xmlns:rdf="http://www.w3.org/1999/02/22-rdf-syntax-ns#"
   xmlns:svg="http://www.w3.org/2000/svg"
   xmlns="http://www.w3.org/2000/svg"
   xmlns:sodipodi="http://sodipodi.sourceforge.net/DTD/sodipodi-0.dtd"
   xmlns:inkscape="http://www.inkscape.org/namespaces/inkscape"
   width="210mm"
   height="297mm"
   viewBox="0 0 210 297"
   version="1.1"
   id="svg8"
   inkscape:version="0.92.5 (2060ec1f9f, 2020-04-08)"
   sodipodi:docname="recojump-ui.svg">
  <defs
     id="defs2" />
  <sodipodi:namedview
     id="base"
     pagecolor="#ffffff"
     bordercolor="#666666"
     borderopacity="1.0"
     inkscape:pageopacity="0.0"
     inkscape:pageshadow="2"
     inkscape:zoom="0.49497475"
     inkscape:cx="2797.7266"
     inkscape:cy="-1312.638"
     inkscape:document-units="mm"
     inkscape:current-layer="layer1"
     showgrid="false"
     inkscape:snap-global="false"
     inkscape:window-width="1366"
     inkscape:window-height="715"
     inkscape:window-x="1366"
     inkscape:window-y="0"
     inkscape:window-maximized="1" />
  <metadata
     id="metadata5">
    <rdf:RDF>
      <cc:Work
         rdf:about="">
        <dc:format>image/svg+xml</dc:format>
        <dc:type
           rdf:resource="http://purl.org/dc/dcmitype/StillImage" />
        <dc:title />
      </cc:Work>
    </rdf:RDF>
  </metadata>
  <g
     inkscape:label="Layer 1"
     inkscape:groupmode="layer"
     id="layer1">
    <rect
       ry="1.2756697"
       rx="0.94493902"
       y="388.26813"
       x="1210.9"
       height="25.237532"
       width="264.59683"
       id="rect1095"
       style="fill:#d0d0d0;fill-opacity:1;stroke:none;stroke-width:1.56665075;stroke-miterlimit:4;stroke-dasharray:none;stroke-opacity:1"
       inkscape:export-xdpi="96"
       inkscape:export-ydpi="96"
       inkscape:export-filename="/home/manu/p5_2/art_assets/ui/loader.png" />
    <rect
       style="fill:#d9d9d9;fill-opacity:1;stroke:none;stroke-width:1.64751887;stroke-miterlimit:4;stroke-dasharray:none;stroke-opacity:1"
       id="rect1097"
       width="264.59683"
       height="27.910225"
       x="1210.9"
       y="381.17505"
       rx="0"
       ry="1.403165"
       inkscape:export-xdpi="96"
       inkscape:export-ydpi="96"
       inkscape:export-filename="/home/manu/p5_2/art_assets/ui/loader.png" />
    <rect
       style="fill:#ff4754;fill-opacity:1;stroke:none;stroke-width:1.19333231;stroke-miterlimit:4;stroke-dasharray:none;stroke-opacity:1"
       id="rect1109"
       width="258.76431"
       height="14.972884"
       x="1213.84"
       y="391.7738"
       rx="2.6931374"
       ry="1.8467212"
       inkscape:export-xdpi="96.097496"
       inkscape:export-ydpi="96.097496"
       inkscape:export-filename="/home/manu/p5_2/art_assets/ui/loader-fg.png" />
    <rect
       inkscape:export-filename="/home/manu/p5_2/art_assets/ui/loader-fg.png"
       inkscape:export-ydpi="96.097496"
       inkscape:export-xdpi="96.097496"
       ry="2.4993832"
       rx="2.6931374"
       y="383.64731"
       x="1213.84"
       height="20.264551"
       width="258.76431"
       id="rect1105"
       style="fill:#ff5e61;fill-opacity:1;stroke:none;stroke-width:1.38828027;stroke-miterlimit:4;stroke-dasharray:none;stroke-opacity:1" />
    <g
       id="g985"
       transform="translate(904.875,24.190476)">
      <circle
         inkscape:export-ydpi="96"
         inkscape:export-xdpi="96"
         r="2.4095981"
         cy="25.046129"
         cx="21.875372"
         id="path830"
         style="fill:#f9f9f9;fill-opacity:0.66666667;stroke:none;stroke-width:2;stroke-miterlimit:4;stroke-dasharray:none;stroke-opacity:1" />
      <rect
         inkscape:export-ydpi="96"
         inkscape:export-xdpi="96"
         ry="4.8776689"
         rx="2.4510503"
         y="22.514194"
         x="27.061039"
         height="4.8776689"
         width="43.899021"
         id="rect832"
         style="fill:#f9f9f9;fill-opacity:0.66666667;stroke:none;stroke-width:2;stroke-miterlimit:4;stroke-dasharray:none;stroke-opacity:1" />
      <g
         transform="translate(-1.4280601,-3.179419)"
         inkscape:export-ydpi="96"
         inkscape:export-xdpi="96"
         id="g848">
        <rect
           ry="7.1312566"
           rx="10.262783"
           y="26.132753"
           x="15.501633"
           height="50.561935"
           width="139.78197"
           id="rect817"
           style="fill:#ff4754;fill-opacity:1;stroke:none;stroke-width:1.61173582;stroke-miterlimit:4;stroke-dasharray:none;stroke-opacity:1"
           inkscape:export-xdpi="96"
           inkscape:export-ydpi="96" />
        <rect
           style="fill:#ff5e61;fill-opacity:1;stroke:none;stroke-width:1.61173582;stroke-miterlimit:4;stroke-dasharray:none;stroke-opacity:1"
           id="rect815"
           width="139.78197"
           height="50.561935"
           x="15.501633"
           y="19.03969"
           rx="7.0413566"
           ry="6.7514477"
           inkscape:export-xdpi="96"
           inkscape:export-ydpi="96" />
      </g>
    </g>
    <g
       id="g978"
       transform="translate(1217.9391,95.959537)">
      <rect
         ry="7.1312566"
         rx="10.262783"
         y="93.725792"
         x="16.245667"
         height="50.561935"
         width="139.78197"
         id="rect834-3"
         style="fill:#47acff;fill-opacity:1;stroke:none;stroke-width:1.61173582;stroke-miterlimit:4;stroke-dasharray:none;stroke-opacity:1" />
      <rect
         inkscape:export-ydpi="96.099998"
         inkscape:export-xdpi="96.099998"
         style="fill:#dddddd;fill-opacity:1;stroke:none;stroke-width:1.72092223;stroke-miterlimit:4;stroke-dasharray:none;stroke-opacity:1"
         id="rect836-6"
         width="139.78197"
         height="57.644577"
         x="16.245667"
         y="86.632729"
         rx="7.5758839"
         ry="7.4299145" />
      <rect
         inkscape:export-ydpi="96"
         inkscape:export-xdpi="96"
         ry="6.6285505"
         rx="6.657763"
         y="90.512062"
         x="20.203293"
         height="49.641556"
         width="132.16702"
         id="rect850-7"
         style="fill:#f2f2f2;fill-opacity:1;stroke:none;stroke-width:1.55289006;stroke-miterlimit:4;stroke-dasharray:none;stroke-opacity:1" />
    </g>
    <g
       id="g989"
       transform="translate(1012.9762,21.166667)"
       inkscape:export-filename="/home/manu/p5_2/art_assets/ui/button-green-pressed.png"
       inkscape:export-xdpi="96"
       inkscape:export-ydpi="96">
      <rect
         ry="7.1312566"
         rx="10.262783"
         y="91.14962"
         x="-246.57201"
         height="50.561935"
         width="139.78197"
         id="rect932"
         style="fill:#63ff63;fill-opacity:1;stroke:none;stroke-width:1.61173582;stroke-miterlimit:4;stroke-dasharray:none;stroke-opacity:1"
         inkscape:export-xdpi="96"
         inkscape:export-ydpi="96" />
      <rect
         style="fill:#84ff84;fill-opacity:1;stroke:none;stroke-width:1.65378535;stroke-miterlimit:4;stroke-dasharray:none;stroke-opacity:1"
         id="rect934"
         width="139.78197"
         height="53.234631"
         x="-246.57201"
         y="84.056526"
         rx="7.0413566"
         ry="7.1083279"
         inkscape:export-xdpi="96"
         inkscape:export-ydpi="96" />
    </g>
    <circle
       inkscape:export-ydpi="96"
       inkscape:export-xdpi="96"
       r="2.4095981"
       cy="48.61824"
       cx="774.53107"
       id="circle963"
       style="fill:#f9f9f9;fill-opacity:0.66666667;stroke:none;stroke-width:2;stroke-miterlimit:4;stroke-dasharray:none;stroke-opacity:1" />
    <rect
       inkscape:export-ydpi="96"
       inkscape:export-xdpi="96"
       ry="4.8776689"
       rx="2.4510503"
       y="46.086304"
       x="779.71674"
       height="4.8776689"
       width="43.899021"
       id="rect965"
       style="fill:#f9f9f9;fill-opacity:0.66666667;stroke:none;stroke-width:2;stroke-miterlimit:4;stroke-dasharray:none;stroke-opacity:1" />
    <rect
       inkscape:export-ydpi="96"
       inkscape:export-xdpi="96"
       style="fill:#63ff63;fill-opacity:1;stroke:none;stroke-width:1.61173582;stroke-miterlimit:4;stroke-dasharray:none;stroke-opacity:1"
       id="rect967"
       width="139.78197"
       height="50.561935"
       x="766.72925"
       y="46.525444"
       rx="10.262783"
       ry="7.1312566"
       inkscape:export-filename="/home/manu/p5_2/art_assets/ui/button-green.png" />
    <rect
       inkscape:export-ydpi="96"
       inkscape:export-xdpi="96"
       ry="6.7514477"
       rx="7.0413566"
       y="39.432381"
       x="766.72925"
       height="50.561935"
       width="139.78197"
       id="rect969"
       style="fill:#84ff84;fill-opacity:1;stroke:none;stroke-width:1.61173582;stroke-miterlimit:4;stroke-dasharray:none;stroke-opacity:1"
       inkscape:export-filename="/home/manu/p5_2/art_assets/ui/button-green.png" />
    <g
       id="g1001"
       transform="translate(1012.9762,21.166667)">
      <rect
         inkscape:export-ydpi="96"
         inkscape:export-xdpi="96"
         style="fill:#ff4754;fill-opacity:1;stroke:none;stroke-width:1.61173582;stroke-miterlimit:4;stroke-dasharray:none;stroke-opacity:1"
         id="rect991"
         width="139.78197"
         height="50.561935"
         x="-94.62558"
         y="91.905571"
         rx="10.262783"
         ry="7.1312566" />
      <rect
         inkscape:export-ydpi="96"
         inkscape:export-xdpi="96"
         ry="7.1083279"
         rx="7.0413566"
         y="84.812477"
         x="-94.62558"
         height="53.234631"
         width="139.78197"
         id="rect993"
         style="fill:#ff5e61;fill-opacity:1;stroke:none;stroke-width:1.65378535;stroke-miterlimit:4;stroke-dasharray:none;stroke-opacity:1" />
    </g>
    <g
       id="g1036"
       inkscape:export-filename="/home/manu/p5_2/art_assets/ui/blue-button.png"
       inkscape:export-xdpi="96"
       inkscape:export-ydpi="96"
       transform="translate(1012.9762,21.166667)">
      <circle
         style="fill:#f9f9f9;fill-opacity:0.66666667;stroke:none;stroke-width:2;stroke-miterlimit:4;stroke-dasharray:none;stroke-opacity:1"
         id="circle1003"
         cx="68.790504"
         cy="27.5354"
         r="2.4095981"
         inkscape:export-xdpi="96"
         inkscape:export-ydpi="96" />
      <rect
         style="fill:#f9f9f9;fill-opacity:0.66666667;stroke:none;stroke-width:2;stroke-miterlimit:4;stroke-dasharray:none;stroke-opacity:1"
         id="rect1005"
         width="43.899021"
         height="4.8776689"
         x="73.976173"
         y="25.003466"
         rx="2.4510503"
         ry="4.8776689"
         inkscape:export-xdpi="96"
         inkscape:export-ydpi="96" />
      <rect
         ry="7.1312566"
         rx="10.262783"
         y="25.442604"
         x="60.988708"
         height="50.561935"
         width="139.78197"
         id="rect1007"
         style="fill:#31d8ff;fill-opacity:1;stroke:none;stroke-width:1.61173582;stroke-miterlimit:4;stroke-dasharray:none;stroke-opacity:1"
         inkscape:export-xdpi="96"
         inkscape:export-ydpi="96" />
      <rect
         style="fill:#5ee0ff;fill-opacity:1;stroke:none;stroke-width:1.61173582;stroke-miterlimit:4;stroke-dasharray:none;stroke-opacity:1"
         id="rect1009"
         width="139.78197"
         height="50.561935"
         x="60.988708"
         y="18.349541"
         rx="7.0413566"
         ry="6.7514477"
         inkscape:export-xdpi="96"
         inkscape:export-ydpi="96" />
    </g>
    <g
       id="g1040"
       inkscape:export-filename="/home/manu/p5_2/art_assets/ui/blue-button-down.png"
       inkscape:export-xdpi="96"
       inkscape:export-ydpi="96"
       transform="translate(1012.9762,21.166667)">
      <rect
         ry="7.1312566"
         rx="10.262783"
         y="92.882935"
         x="60.012772"
         height="50.561935"
         width="139.78197"
         id="rect1015"
         style="fill:#31d8ff;fill-opacity:1;stroke:none;stroke-width:1.61173582;stroke-miterlimit:4;stroke-dasharray:none;stroke-opacity:1"
         inkscape:export-xdpi="96"
         inkscape:export-ydpi="96" />
      <rect
         style="fill:#5ee0ff;fill-opacity:1;stroke:none;stroke-width:1.65378535;stroke-miterlimit:4;stroke-dasharray:none;stroke-opacity:1"
         id="rect1017"
         width="139.78197"
         height="53.234631"
         x="60.012772"
         y="85.789841"
         rx="7.0413566"
         ry="7.1083279"
         inkscape:export-xdpi="96"
         inkscape:export-ydpi="96" />
    </g>
    <circle
       style="fill:#f9f9f9;fill-opacity:0.66666667;stroke:none;stroke-width:2;stroke-miterlimit:4;stroke-dasharray:none;stroke-opacity:1"
       id="circle1042"
       cx="1242.663"
       cy="47.632988"
       r="2.4095981"
       inkscape:export-xdpi="96"
       inkscape:export-ydpi="96" />
    <rect
       style="fill:#f9f9f9;fill-opacity:0.66666667;stroke:none;stroke-width:2;stroke-miterlimit:4;stroke-dasharray:none;stroke-opacity:1"
       id="rect1044"
       width="43.899021"
       height="4.8776689"
       x="1247.8486"
       y="45.101055"
       rx="2.4510503"
       ry="4.8776689"
       inkscape:export-xdpi="96"
       inkscape:export-ydpi="96" />
    <rect
       ry="7.1312566"
       rx="10.262783"
       y="45.540192"
       x="1234.8612"
       height="50.561935"
       width="139.78197"
       id="rect1046"
       style="fill:#ffe765;fill-opacity:1;stroke:none;stroke-width:1.61173582;stroke-miterlimit:4;stroke-dasharray:none;stroke-opacity:1"
       inkscape:export-xdpi="96"
       inkscape:export-ydpi="96" />
    <rect
       style="fill:#ffef97;fill-opacity:1;stroke:none;stroke-width:1.61173582;stroke-miterlimit:4;stroke-dasharray:none;stroke-opacity:1"
       id="rect1048"
       width="139.78197"
       height="50.561935"
       x="1234.8612"
       y="38.447128"
       rx="7.0413566"
       ry="6.7514477"
       inkscape:export-xdpi="96"
       inkscape:export-ydpi="96" />
    <rect
       ry="7.1312566"
       rx="10.262783"
       y="112.98052"
       x="1233.8853"
       height="50.561935"
       width="139.78197"
       id="rect1052"
       style="fill:#ffe765;fill-opacity:1;stroke:none;stroke-width:1.61173582;stroke-miterlimit:4;stroke-dasharray:none;stroke-opacity:1"
       inkscape:export-xdpi="96"
       inkscape:export-ydpi="96" />
    <rect
       style="fill:#ffef97;fill-opacity:1;stroke:none;stroke-width:1.65378535;stroke-miterlimit:4;stroke-dasharray:none;stroke-opacity:1"
       id="rect1054"
       width="139.78197"
       height="53.234631"
       x="1233.8853"
       y="105.88743"
       rx="7.0413566"
       ry="7.1083279"
       inkscape:export-xdpi="96"
       inkscape:export-ydpi="96" />
    <circle
       style="fill:#ff5e61;fill-opacity:1;stroke:none;stroke-width:2;stroke-miterlimit:4;stroke-dasharray:none;stroke-opacity:1"
       id="path1064"
       cx="1336.2386"
       cy="282.88708"
       r="31.537804"
       inkscape:export-filename="/home/manu/p5_2/art_assets/ui/inventory.png"
       inkscape:export-xdpi="96"
       inkscape:export-ydpi="96" />
    <g
       id="g1144"
       transform="matrix(1.1450091,0,0,1.1450091,967.00548,-17.158226)">
      <rect
         transform="rotate(-90)"
         ry="10.120671"
         rx="2.383008"
         y="312.76694"
         x="-278.89685"
         height="20.241343"
         width="34.284046"
         id="rect1066"
         style="fill:#ffffff;fill-opacity:1;stroke:none;stroke-width:1.7191602;stroke-miterlimit:4;stroke-dasharray:none;stroke-opacity:1" />
      <path
         inkscape:connector-curvature="0"
         id="rect1123"
         d="m 303.25034,261.86902 c 0,6.03951 4.68524,10.90168 10.50478,10.90168 h 7.99848 c 5.81956,0 10.50478,-4.86217 10.50478,-10.90168 0,-6.03948 -4.68522,-10.90165 -10.50478,-10.90165 h -7.99848 c -5.81954,0 -10.50478,4.86217 -10.50478,10.90165 z m 4.08347,0.10285 c 0,-3.74214 2.90279,-6.75463 6.50865,-6.75463 h 4.95628 c 3.60586,0 6.50865,3.01249 6.50865,6.75463 0,3.74216 -2.90279,6.75462 -6.50865,6.75462 h -4.95628 c -3.60586,0 -6.50865,-3.01246 -6.50865,-6.75462 z"
         style="fill:#ffffff;fill-opacity:1;stroke:none;stroke-width:4.62333393;stroke-miterlimit:4;stroke-dasharray:none;stroke-opacity:1" />
      <rect
         ry="6.5394053"
         rx="5.0938225"
         y="255.13914"
         x="324.3981"
         height="18.42634"
         width="14.552083"
         id="rect1136"
         style="fill:#ffffff;fill-opacity:1;stroke:none;stroke-width:2;stroke-miterlimit:4;stroke-dasharray:none;stroke-opacity:1" />
      <rect
         style="fill:#ffffff;fill-opacity:1;stroke:none;stroke-width:1.35569942;stroke-miterlimit:4;stroke-dasharray:none;stroke-opacity:1"
         id="rect1138"
         width="34.284046"
         height="12.587325"
         x="-278.89685"
         y="312.76694"
         rx="2.500443"
         ry="2.6855321"
         transform="rotate(-90)" />
    </g>
    <circle
       r="31.537804"
       cy="280.74893"
       cx="1260.3341"
       id="circle1146"
       style="fill:#ff5e61;fill-opacity:1;stroke:none;stroke-width:2;stroke-miterlimit:4;stroke-dasharray:none;stroke-opacity:1"
       inkscape:export-filename="/home/manu/p5_2/art_assets/ui/leaderboard.png"
       inkscape:export-xdpi="96"
       inkscape:export-ydpi="96" />
    <path
       style="fill:#ffffff;fill-opacity:1;stroke:none;stroke-width:1.57377946;stroke-miterlimit:4;stroke-dasharray:none;stroke-opacity:1"
       d="m 1246.9342,260.98483 c -0.6962,0 -1.2568,0.64428 -1.2568,1.44503 v 7.49835 c 0,0.0789 0.01,0.15536 0.018,0.23071 a 14.195929,14.195929 0 0 0 -0.044,0.86653 14.195929,14.195929 0 0 0 11.5133,13.92861 v 9.59701 h -6.3147 c -0.9783,0 -1.7656,0.74082 -1.7656,1.66092 v 4.176 c 0,0.9201 0.7873,1.66092 1.7656,1.66092 h 17.995 c 0.9783,0 1.7656,-0.74082 1.7656,-1.66092 v -4.176 c 0,-0.9201 -0.7873,-1.66092 -1.7656,-1.66092 h -6.3147 v -9.59157 a 14.195929,14.195929 0 0 0 11.5133,-13.93405 14.195929,14.195929 0 0 0 -0.028,-0.79686 c 0.018,-0.0969 0.028,-0.19722 0.028,-0.30038 v -7.49835 c 0,-0.80075 -0.5605,-1.44503 -1.2568,-1.44503 z"
       id="rect1150"
       inkscape:connector-curvature="0" />
    <rect
       ry="6.658793"
       rx="5.3245072"
       y="237.02545"
       x="1164.7382"
       height="50.561935"
       width="59.651012"
       id="rect947"
       style="fill:#cccccc;fill-opacity:1;stroke:none;stroke-width:1.052876;stroke-miterlimit:4;stroke-dasharray:none;stroke-opacity:1"
       inkscape:export-xdpi="96"
       inkscape:export-ydpi="96"
       inkscape:export-filename="/home/manu/p5_2/art_assets/ui/panel.png" />
    <rect
       style="fill:#e2e2e2;fill-opacity:1;stroke:none;stroke-width:1.08845067;stroke-miterlimit:4;stroke-dasharray:none;stroke-opacity:1"
       id="rect949"
       width="59.651012"
       height="54.036438"
       x="1164.7382"
       y="229.93239"
       rx="4.5085287"
       ry="4.1637874"
       inkscape:export-xdpi="96"
       inkscape:export-ydpi="96"
       inkscape:export-filename="/home/manu/p5_2/art_assets/ui/panel.png" />
    <rect
       inkscape:export-ydpi="96"
       inkscape:export-xdpi="96"
       style="fill:#ff868e;fill-opacity:1;stroke:none;stroke-width:1.052876;stroke-miterlimit:4;stroke-dasharray:none;stroke-opacity:1"
       id="rect951"
       width="59.651012"
       height="50.561935"
       x="1094.8237"
       y="237.15515"
       rx="5.3245072"
       ry="6.658793"
       inkscape:export-filename="/home/manu/p5_2/art_assets/ui/panel-selected.png" />
    <rect
       inkscape:export-ydpi="96"
       inkscape:export-xdpi="96"
       ry="4.1637874"
       rx="4.5085287"
       y="230.06209"
       x="1094.8237"
       height="54.036438"
       width="59.651012"
       id="rect953"
       style="fill:#ffaaab;fill-opacity:1;stroke:none;stroke-width:1.08845067;stroke-miterlimit:4;stroke-dasharray:none;stroke-opacity:1"
       inkscape:export-filename="/home/manu/p5_2/art_assets/ui/panel-selected.png" />
    <rect
       style="fill:#f2f2f2;fill-opacity:1;stroke:none;stroke-width:0.81186014;stroke-miterlimit:4;stroke-dasharray:none;stroke-opacity:1"
       id="rect997"
       width="285.75"
       height="17.888624"
       x="1000.1252"
       y="-111.97015"
       rx="1.7180244"
       ry="0.80990088"
       inkscape:export-filename="/home/manu/p5_2/art_assets/ui/background.png"
       inkscape:export-xdpi="96"
       inkscape:export-ydpi="96" />
    <ellipse
       style="fill:#ff5e61;fill-opacity:1;stroke:none;stroke-width:1.09854758;stroke-miterlimit:4;stroke-dasharray:none;stroke-opacity:1"
       id="path985"
       cx="1143.1351"
       cy="-16.775187"
       rx="70.40271"
       ry="36.224648"
       inkscape:export-filename="/home/manu/p5_2/art_assets/ui/timer-background.png"
       inkscape:export-xdpi="96"
       inkscape:export-ydpi="96" />
    <rect
       style="fill:#ff5e61;fill-opacity:1;stroke:none;stroke-width:2.00302815;stroke-miterlimit:4;stroke-dasharray:none;stroke-opacity:1"
       id="rect1067"
       width="140.74171"
       height="37.952274"
       x="1072.7339"
       y="-45.854435"
       rx="9.5660324"
       ry="9.8223133"
       inkscape:export-filename="/home/manu/p5_2/art_assets/ui/timer-background.png"
       inkscape:export-xdpi="96"
       inkscape:export-ydpi="96" />
    <g
       id="g1093"
       transform="translate(1012.9762,21.166667)">
      <rect
         ry="7.1312566"
         rx="10.262783"
         y="91.905571"
         x="-94.62558"
         height="50.561935"
         width="139.78197"
         id="rect1089"
         style="fill:#ff4754;fill-opacity:1;stroke:none;stroke-width:1.61173582;stroke-miterlimit:4;stroke-dasharray:none;stroke-opacity:1"
         inkscape:export-xdpi="96"
         inkscape:export-ydpi="96" />
      <rect
         style="fill:#ff5e61;fill-opacity:1;stroke:none;stroke-width:1.65378535;stroke-miterlimit:4;stroke-dasharray:none;stroke-opacity:1"
         id="rect1091"
         width="139.78197"
         height="53.234631"
         x="-94.62558"
         y="84.812477"
         rx="7.0413566"
         ry="7.1083279"
         inkscape:export-xdpi="96"
         inkscape:export-ydpi="96" />
    </g>
    <rect
       inkscape:export-ydpi="96"
       inkscape:export-xdpi="96"
       ry="9.1388597"
       rx="8.4527636"
       y="39.045933"
       x="1500.9865"
       height="124.67714"
       width="139.57182"
       id="rect1000"
       style="fill:#f2f2f2;fill-opacity:1;stroke:none;stroke-width:2.52899957;stroke-miterlimit:4;stroke-dasharray:none;stroke-opacity:1" />
    <ellipse
       inkscape:export-ydpi="96"
       inkscape:export-xdpi="96"
       inkscape:export-filename="/home/manu/p5_2/art_assets/ui/close.png"
       cy="286.62885"
       cx="1044.5142"
       id="circle1075"
       style="fill:#ff5e61;fill-opacity:1;stroke:none;stroke-width:2.0000062;stroke-miterlimit:4;stroke-dasharray:none;stroke-opacity:1"
       rx="31.538"
       ry="31.537804" />
    <path
       style="fill:#ffffff;fill-opacity:1;stroke:none;stroke-width:1.73246253;stroke-miterlimit:4;stroke-dasharray:none;stroke-opacity:1"
       d="m 1032.1189,269.34177 c -0.7246,-0.0135 -1.425,0.24959 -1.9321,0.79246 l -3.1045,3.32306 c -1.0142,1.0857 -0.859,2.86688 0.3477,3.994 l 9.8247,9.17723 -9.8247,9.17724 c -1.2067,1.12713 -1.3619,2.90881 -0.3477,3.99454 l 3.1045,3.32305 c 1.0142,1.08573 2.8023,1.0521 4.0089,-0.075 l 10.3187,-9.63844 10.3186,9.63844 c 1.2066,1.12711 2.9942,1.16074 4.0084,0.075 l 3.1044,-3.32305 c 1.0142,-1.08573 0.8595,-2.86741 -0.3471,-3.99454 l -9.8247,-9.17724 9.8247,-9.17723 c 1.2066,-1.12712 1.3613,-2.9083 0.3471,-3.994 l -3.1044,-3.32306 c -1.0142,-1.08572 -2.8018,-1.05263 -4.0084,0.0745 l -10.3186,9.63846 -10.3187,-9.63846 c -0.6033,-0.56355 -1.3523,-0.85344 -2.0768,-0.86694 z"
       id="rect1092"
       inkscape:connector-curvature="0"
       inkscape:export-filename="/home/manu/p5_2/art_assets/ui/close.png"
       inkscape:export-xdpi="96"
       inkscape:export-ydpi="96" />
    <g
       id="g986"
       transform="matrix(2.6927297,0,0,1,254.80111,154.53249)"
       inkscape:export-filename="/home/manu/kredit.png"
       inkscape:export-xdpi="96"
       inkscape:export-ydpi="96">
      <rect
         inkscape:export-ydpi="96"
         inkscape:export-xdpi="96"
         style="fill:#ff4754;fill-opacity:1;stroke:none;stroke-width:1.61173582;stroke-miterlimit:4;stroke-dasharray:none;stroke-opacity:1"
         id="rect981"
         width="139.78197"
         height="50.561935"
         x="-94.62558"
         y="91.905571"
         rx="3.314508"
         ry="4.674408" />
      <rect
         inkscape:export-ydpi="96"
         inkscape:export-xdpi="96"
         ry="5.237443"
         rx="2.0785561"
         y="84.812477"
         x="-94.62558"
         height="53.234631"
         width="139.78197"
         id="rect983"
         style="fill:#ff5e61;fill-opacity:1;stroke:none;stroke-width:1.65378535;stroke-miterlimit:4;stroke-dasharray:none;stroke-opacity:1" />
    </g>
    <flowRoot
       xml:space="preserve"
       id="flowRoot992"
       style="font-style:normal;font-variant:normal;font-weight:normal;font-stretch:normal;font-size:113.33333588px;line-height:1.25;font-family:'Royal Kingdom';-inkscape-font-specification:'Royal Kingdom';letter-spacing:-13.63999939px;word-spacing:0px;fill:#000000;fill-opacity:1;stroke:none"
       transform="scale(0.26458333)"
       inkscape:export-filename="/home/manu/kredit.png"
       inkscape:export-xdpi="96"
       inkscape:export-ydpi="96"><flowRegion
         id="flowRegion994"
         style="font-size:113.33333588px"><rect
           id="rect996"
           width="1414.2135"
           height="131.31982"
           x="6.0609155"
           y="946.75311"
           style="font-size:113.33333588px" /></flowRegion><flowPara
         id="flowPara998"
         style="font-size:113.33333588px;text-align:center;letter-spacing:0px;text-anchor:middle;fill:#ffffff">Kredit</flowPara></flowRoot>    <rect
       inkscape:export-filename="/home/manu/p5_2/art_assets/ui/panel-ordered.png"
       ry="6.658793"
       rx="5.3245072"
       y="305.94675"
       x="1094.8237"
       height="50.561935"
       width="59.651012"
       id="rect995"
       style="fill:#ffe765;fill-opacity:1;stroke:none;stroke-width:1.052876;stroke-miterlimit:4;stroke-dasharray:none;stroke-opacity:1"
       inkscape:export-xdpi="96"
       inkscape:export-ydpi="96" />
    <rect
       inkscape:export-filename="/home/manu/p5_2/art_assets/ui/panel-ordered.png"
       style="fill:#ffef97;fill-opacity:1;stroke:none;stroke-width:1.08845067;stroke-miterlimit:4;stroke-dasharray:none;stroke-opacity:1"
       id="rect998"
       width="59.651012"
       height="54.036438"
       x="1094.8237"
       y="298.8537"
       rx="4.5085287"
       ry="4.1637874"
       inkscape:export-xdpi="96"
       inkscape:export-ydpi="96" />
    <path
       inkscape:connector-curvature="0"
       id="path1023"
       d="m 711.56873,698.96511 c -0.207,-0.32742 -2.98944,-5.00062 -6.18321,-10.38489 -3.19377,-5.38427 -7.33309,-12.34943 -9.19849,-15.47813 -1.86539,-3.1287 -4.84194,-8.12932 -6.61455,-11.1125 -1.77261,-2.98318 -4.70429,-7.91225 -6.51484,-10.9535 l -3.2919,-5.52955 -1.2602,-0.31997 c -3.6877,-0.93635 -5.9619,-5.11046 -4.58046,-8.40704 0.94489,-2.25483 3.4145,-3.89199 5.86093,-3.88534 3.6027,0.01 6.68689,3.95428 5.73815,7.33873 -0.15216,0.54278 -0.34784,1.22501 -0.43485,1.51605 -0.14159,0.47357 0.28034,0.69272 4.01612,2.08601 5.34641,1.99397 12.30621,4.96124 17.60396,7.50534 2.29308,1.10118 4.2146,1.95346 4.27006,1.89394 0.0555,-0.0595 -0.53244,-2.60852 -1.30645,-5.66446 -1.21495,-4.79686 -2.65547,-11.57049 -3.8825,-18.25625 l -0.33991,-1.85208 -1.36169,-0.16621 c -2.71272,-0.3311 -5.07773,-2.10173 -6.27268,-4.6962 -0.81096,-1.76075 -0.77718,-4.99324 0.0695,-6.64697 0.82581,-1.61303 2.26743,-3.07743 3.86074,-3.92175 1.13147,-0.59958 1.64839,-0.70103 3.57188,-0.70103 1.92349,0 2.44041,0.10145 3.57187,0.70103 2.99573,1.58748 4.46156,4.05391 4.48399,7.54486 l 0.0139,2.1679 5.51892,3.4523 c 5.33252,3.33571 12.4367,8.12474 15.58456,10.50579 0.83837,0.63414 1.64614,1.15299 1.79505,1.15299 0.16724,0 0.21453,-0.48047 0.12371,-1.25678 -0.0809,-0.69122 -0.51478,-5.60255 -0.96425,-10.91406 -0.62028,-7.33002 -0.78022,-10.4543 -0.66368,-12.96458 0.0844,-1.81901 0.22717,-3.56246 0.31715,-3.87434 0.13528,-0.46889 0.009,-0.61792 -0.72688,-0.86094 -1.95987,-0.64681 -3.64555,-2.66644 -4.05726,-4.86102 -0.43998,-2.34533 1.22771,-5.34431 3.66269,-6.58654 2.62747,-1.34044 6.75072,0.35571 7.97236,3.27951 0.82417,1.97251 0.29121,5.44796 -0.99918,6.51577 -0.3887,0.32166 -0.10485,0.70989 2.70828,3.70417 8.30006,8.83452 14.73074,17.68583 24.15162,33.24276 1.67435,2.7649 4.25279,6.86044 5.72986,9.1012 1.47708,2.24077 2.68559,4.22958 2.68559,4.41958 0,0.495 -3.24434,4.70508 -6.61472,8.58371 -11.61853,13.37058 -27.03719,24.07255 -44.71445,31.03596 -3.97451,1.56563 -11.82739,4.14184 -12.62529,4.14184 -0.17991,0 -0.49646,-0.26789 -0.70345,-0.59531 z"
       style="fill:#f3ebd0;stroke-width:0.26458332"
       inkscape:export-filename="/home/manu/p5_2/art_assets/ui/crown.png"
       inkscape:export-xdpi="96"
       inkscape:export-ydpi="96" />
    <path
       inkscape:connector-curvature="0"
       id="path1021"
       d="m 701.02905,680.84115 c -6.03468,-10.15007 -13.23844,-22.26109 -16.00836,-26.91337 -2.76992,-4.65227 -5.19994,-8.54052 -5.40004,-8.64054 -0.20009,-0.10002 -0.89959,-0.32334 -1.55443,-0.49627 -1.72811,-0.45635 -3.81283,-2.64495 -4.18685,-4.39549 -0.79584,-3.72477 2.02788,-7.22937 5.89786,-7.31998 3.76147,-0.0881 6.6151,4.14156 5.33295,7.90446 -0.23531,0.69059 -0.38264,1.30081 -0.32741,1.35605 0.0552,0.0552 2.16826,0.88296 4.69559,1.83938 4.55833,1.72501 12.96738,5.34472 18.68015,8.04094 1.63487,0.7716 3.02931,1.34611 3.09874,1.27667 0.0694,-0.0694 -0.16762,-1.19244 -0.52679,-2.49556 -1.13674,-4.12421 -3.25148,-13.56704 -4.17378,-18.63695 l -0.88968,-4.89056 -1.03424,-0.21311 c -2.29976,-0.47386 -3.04099,-0.77665 -4.25877,-1.73974 -0.71228,-0.5633 -1.62316,-1.63926 -2.06715,-2.44175 -0.7085,-1.28061 -0.79335,-1.67624 -0.79004,-3.68365 0.003,-1.91821 0.1067,-2.44352 0.70398,-3.57188 0.83926,-1.58549 2.04526,-2.77731 3.65794,-3.61493 0.97898,-0.50848 1.59039,-0.61728 3.43958,-0.61207 1.91423,0.005 2.4494,0.11116 3.59569,0.71062 1.57508,0.82368 2.8728,2.21102 3.64791,3.89981 0.419,0.91291 0.55372,1.74043 0.55712,3.42213 l 0.005,2.21805 3.83646,2.35848 c 4.5109,2.7731 12.42009,8.04435 16.53645,11.02107 1.60073,1.15756 2.97518,2.0658 3.05434,2.01831 0.15857,-0.0951 0.0477,-1.59704 -0.96648,-13.08709 -0.52184,-5.9123 -0.65803,-8.7998 -0.56159,-11.90625 0.07,-2.25558 0.21159,-4.30186 0.31459,-4.5473 0.14804,-0.35278 -0.0968,-0.56847 -1.16903,-1.02972 -3.8622,-1.66147 -4.90555,-6.32696 -2.09645,-9.37448 1.45622,-1.57981 2.58707,-2.06662 4.4823,-1.92953 2.01136,0.14549 3.79068,1.22632 4.85629,2.9499 1.30029,2.10317 1.01835,5.08579 -0.65424,6.92115 -0.47479,0.52099 -0.43991,0.57635 1.91707,3.04271 8.57421,8.97209 15.57499,18.55757 25.2117,34.51991 1.57913,2.61567 4.04248,6.52317 5.47413,8.68334 1.43165,2.16016 2.603,4.11062 2.603,4.33434 0,0.40449 -2.16431,3.29551 -5.11526,6.8328 -7.80168,9.35184 -18.66375,18.41171 -29.64411,24.72563 -4.30398,2.47487 -11.39652,5.89413 -15.88942,7.66016 -4.26532,1.67657 -12.0479,4.259 -12.83521,4.259 -0.35002,0 -3.39574,-4.9094 -11.44901,-18.45469 z"
       style="fill:#f3dca0;stroke-width:0.26458332"
       inkscape:export-filename="/home/manu/p5_2/art_assets/ui/crown.png"
       inkscape:export-xdpi="96"
       inkscape:export-ydpi="96" />
    <path
       inkscape:connector-curvature="0"
       id="path1019"
       d="m 711.74123,698.32665 c -0.28875,-0.41283 -7.4592,-12.41873 -15.93432,-26.67977 -8.47513,-14.26104 -15.59514,-26.13752 -15.82226,-26.39218 -0.22712,-0.25467 -0.69806,-0.46302 -1.04654,-0.46302 -1.74244,0 -4.14367,-2.11945 -4.74509,-4.18826 -0.93214,-3.20646 0.94587,-6.29076 4.37835,-7.19065 1.49652,-0.39234 2.56672,-0.18164 4.04249,0.79586 2.26472,1.50009 3.2255,4.59578 2.19316,7.06651 -0.22162,0.53042 -0.31092,1.05377 -0.19844,1.16301 0.11248,0.10924 2.2881,0.99636 4.83472,1.97139 5.96452,2.28365 10.82182,4.35814 16.99977,7.26039 2.72868,1.28187 5.02182,2.23265 5.09586,2.11286 0.074,-0.1198 -0.28064,-1.74533 -0.78817,-3.61228 -1.16335,-4.27942 -3.05998,-12.81189 -3.95983,-17.81425 -0.37956,-2.11005 -0.75339,-4.14937 -0.83073,-4.53183 -0.12311,-0.60878 -0.30747,-0.7175 -1.48062,-0.87312 -2.59078,-0.34368 -4.89253,-1.94056 -6.12935,-4.25234 -0.45009,-0.84129 -0.56686,-1.51956 -0.56938,-3.30729 -0.003,-1.9995 0.0835,-2.40547 0.77839,-3.65991 0.92918,-1.67743 1.89481,-2.54547 3.812,-3.42674 1.2144,-0.55823 1.69583,-0.63428 3.34508,-0.52844 4.56183,0.29276 7.63715,3.94576 7.16027,8.50527 l -0.16979,1.62336 3.51253,2.11666 c 4.6831,2.82207 11.34278,7.22365 16.26467,10.74983 2.20807,1.58192 4.1012,2.87622 4.20696,2.87622 0.24241,0 0.0252,-3.37944 -0.84193,-13.09688 -0.54341,-6.08996 -0.65985,-8.69337 -0.5644,-12.61929 l 0.12025,-4.94637 -1.48339,-0.74217 c -1.94113,-0.97118 -2.98067,-2.42809 -3.14481,-4.40741 -0.19727,-2.37877 0.58012,-3.97836 2.66876,-5.49136 2.18802,-1.585 6.03447,-0.66447 7.61101,1.82148 1.3768,2.17099 1.27696,4.47685 -0.28735,6.63631 l -0.79867,1.10254 3.02144,3.10543 c 7.63485,7.84706 14.92086,17.77663 23.82855,32.47417 1.85209,3.05594 4.60711,7.43088 6.12225,9.72208 1.51514,2.29121 2.75138,4.3748 2.74721,4.63021 -0.0102,0.62424 -4.30284,5.98925 -8.31733,10.39511 -12.49276,13.71069 -29.62832,24.63372 -48.53034,30.93559 -6.22035,2.07384 -6.43659,2.10914 -7.10098,1.15928 z"
       style="fill:#f3c95f;stroke-width:0.26458332"
       inkscape:export-filename="/home/manu/p5_2/art_assets/ui/crown.png"
       inkscape:export-xdpi="96"
       inkscape:export-ydpi="96" />
    <path
       inkscape:connector-curvature="0"
       id="path1017"
       d="m 711.66464,697.90678 c -0.28877,-0.47294 -7.52007,-12.6183 -16.06955,-26.98968 -8.54947,-14.37139 -15.72309,-26.17794 -15.94137,-26.2368 -0.21829,-0.0589 -0.82399,-0.17869 -1.34601,-0.26631 -1.22505,-0.20562 -3.08373,-1.79797 -3.71121,-3.17942 -1.57637,-3.47055 0.852,-7.34177 4.8463,-7.7258 1.24781,-0.11997 1.55929,-0.0382 2.83965,0.74543 1.88763,1.1553 2.66666,2.57165 2.65356,4.8244 -0.005,0.89531 -0.1775,1.90613 -0.3875,2.27349 -0.20797,0.3638 -0.38235,0.79448 -0.3875,0.95707 -0.005,0.16258 1.03242,0.68495 2.30573,1.16083 7.7645,2.90186 16.73782,6.73698 22.33527,9.54591 1.60242,0.80413 2.76513,1.24318 2.90962,1.09869 0.14449,-0.14448 -0.12856,-1.60598 -0.68329,-3.6573 -1.29885,-4.80301 -3.15826,-13.17442 -4.13802,-18.6302 -0.45734,-2.54661 -0.87639,-4.70381 -0.93125,-4.79377 -0.0548,-0.09 -0.71404,-0.24505 -1.46486,-0.34465 -4.06696,-0.53951 -6.84295,-3.91831 -6.52042,-7.93637 0.15474,-1.9277 0.84139,-3.37234 2.22886,-4.68928 1.69155,-1.60557 2.58025,-1.94293 5.11565,-1.94192 2.66239,0.001 3.77499,0.47399 5.48869,2.33314 1.43231,1.55387 2.04536,3.54538 1.79914,5.84455 l -0.17566,1.64028 3.65381,2.21842 c 5.15116,3.12755 11.1391,7.08601 16.1515,10.6773 2.36259,1.69274 4.43399,3.07772 4.60312,3.07772 0.36043,0 0.27414,-1.5227 -0.71966,-12.7 -0.73682,-8.28688 -0.88136,-12.41893 -0.55789,-15.94863 l 0.21285,-2.32258 -1.0066,-0.41541 c -2.51934,-1.0397 -3.7684,-2.80306 -3.77891,-5.33486 -0.01,-2.35174 1.60051,-4.61126 3.80468,-5.3387 1.28526,-0.42417 3.49706,0.0489 4.8663,1.04073 2.33774,1.69344 2.85479,5.15826 1.13407,7.59947 -0.44827,0.63596 -0.81503,1.27818 -0.81503,1.42716 0,0.14898 1.30098,1.60401 2.89106,3.23341 7.70966,7.90028 14.6689,17.40667 24.15264,32.99274 1.81519,2.98318 4.42801,7.15037 5.80627,9.26042 1.37827,2.11005 2.58685,3.97273 2.68574,4.13929 0.1848,0.31127 -2.43147,3.90899 -5.07094,6.97321 -7.22782,8.39095 -14.6236,14.93977 -23.45331,20.76746 -6.39884,4.22329 -11.92228,7.19659 -18.96545,10.20921 -4.09383,1.75108 -14.26759,5.27087 -15.23583,5.2711 -0.39202,9e-5 -0.78074,-0.29718 -1.12425,-0.85975 z"
       style="fill:#f6c83e;stroke-width:0.26458332"
       inkscape:export-filename="/home/manu/p5_2/art_assets/ui/crown.png"
       inkscape:export-xdpi="96"
       inkscape:export-ydpi="96" />
    <path
       inkscape:connector-curvature="0"
       id="path1015"
       d="m 711.90354,698.17136 c -0.56001,-1.06667 -30.98641,-52.16889 -31.48539,-52.88082 -0.34701,-0.49512 -0.80029,-0.73407 -1.59455,-0.8406 -2.96268,-0.39738 -5.09393,-3.5918 -4.41434,-6.61644 0.47614,-2.11913 2.12704,-3.63127 4.52625,-4.14581 1.11563,-0.23926 1.46284,-0.20255 2.52395,0.26683 1.56847,0.69381 2.37298,1.43945 2.98585,2.76736 0.61379,1.32991 0.63125,2.81631 0.0521,4.43225 -0.2826,0.78847 -0.35708,1.3473 -0.19975,1.49875 0.13798,0.13282 2.21541,0.98216 4.6165,1.88743 5.8038,2.18815 12.64942,5.1154 17.96424,7.68166 2.38601,1.15209 4.49937,2.0947 4.69636,2.0947 0.52865,0 0.46045,-0.48516 -0.68463,-4.87021 -1.87369,-7.17524 -4.51347,-19.93827 -4.51347,-21.82207 0,-0.61727 0.15333,-0.75564 1.12547,-1.01565 1.54019,-0.41193 3.27156,-1.72465 4.12048,-3.12412 0.38895,-0.64119 0.82624,-1.16493 0.97176,-1.16386 0.14552,0.001 0.8845,0.38425 1.64217,0.85153 0.75768,0.46728 2.51432,1.53995 3.90365,2.38372 3.76343,2.28562 9.90531,6.39512 14.32994,9.58807 4.22347,3.0478 4.46717,3.19449 4.69491,2.826 0.0826,-0.1337 -0.26142,-4.99362 -0.76456,-10.79981 -0.93715,-10.81456 -1.11209,-15.71286 -0.65982,-18.47468 0.29199,-1.7831 0.1299,-2.14085 -1.09152,-2.40912 -1.08268,-0.2378 -2.58881,-1.61435 -3.17279,-2.89982 -0.67696,-1.49015 -0.61762,-2.95646 0.1848,-4.56671 1.69261,-3.39663 5.83176,-4.01113 8.48232,-1.25929 1.47779,1.53426 1.9045,3.22157 1.32171,5.22632 -0.22635,0.77861 -0.71293,1.6988 -1.08128,2.04485 -0.36836,0.34605 -0.66974,0.74316 -0.66974,0.88247 0,0.1393 1.16086,1.45861 2.57969,2.93179 8.44893,8.7726 15.10519,17.87838 25.06831,34.29351 1.72231,2.83766 4.20022,6.75913 5.50647,8.71438 1.30626,1.95525 2.42169,3.74119 2.47875,3.96875 0.21827,0.87054 -7.37166,9.88413 -12.3322,14.64538 -11.14463,10.69688 -23.46835,18.56851 -38.11768,24.34718 -4.12337,1.62654 -11.63615,4.15139 -12.35258,4.15139 -0.18084,0 -0.46945,-0.26789 -0.64135,-0.59531 z"
       style="fill:#f3b627;stroke-width:0.26458332"
       inkscape:export-filename="/home/manu/p5_2/art_assets/ui/crown.png"
       inkscape:export-xdpi="96"
       inkscape:export-ydpi="96" />
  </g>
</svg>
